<?xml version="1.0" standalone="no"?>
<!DOCTYPE svg PUBLIC "-//W3C//DTD SVG 20010904//EN"
 "http://www.w3.org/TR/2001/REC-SVG-20010904/DTD/svg10.dtd">
<svg version="1.0" xmlns="http://www.w3.org/2000/svg"
 width="96.000000pt" height="96.000000pt" viewBox="0 0 96.000000 96.000000"
 preserveAspectRatio="xMidYMid meet">

<g transform="translate(0.000000,96.000000) scale(0.100000,-0.100000)"
fill="#000000" stroke="none">
<path d="M360 905 c-293 -83 -415 -440 -234 -686 46 -64 136 -131 207 -156 71
-25 223 -25 294 0 114 40 230 156 270 270 25 71 25 223 0 294 -39 111 -147
222 -260 265 -70 27 -204 33 -277 13z m275 -95 c64 -31 144 -110 175 -175 22
-43 25 -64 25 -155 0 -126 -19 -175 -100 -255 -80 -81 -129 -100 -255 -100
-91 0 -112 3 -155 25 -65 31 -144 112 -174 175 -33 68 -40 192 -17 267 33 102
119 191 224 231 69 26 209 19 277 -13z"/>
</g>
</svg>
